<svg xmlns="http://www.w3.org/2000/svg"  viewBox="0 0 26 26" width="26px" height="26px" fill-rule="evenodd"><path fill-rule="evenodd" d="M 5.097656 0 L 20.90625 0 C 23.707031 0 26 2.292969 26 5.09375 L 26 20.90625 C 26 23.707031 23.707031 26 20.902344 26 L 5.097656 26 C 2.292969 26 0 23.707031 0 20.90625 L 0 5.09375 C 0 2.292969 2.292969 0 5.097656 0 Z M 19.296875 15.734375 C 19.296875 14.777344 19.03125 14.015625 18.511719 13.449219 C 17.984375 12.882813 17.289063 12.511719 16.417969 12.324219 L 16.417969 12.253906 C 17.023438 11.996094 17.496094 11.605469 17.839844 11.0625 C 18.1875 10.527344 18.359375 9.914063 18.359375 9.226563 C 18.359375 8.632813 18.230469 8.109375 17.980469 7.652344 C 17.734375 7.199219 17.355469 6.835938 16.851563 6.5625 C 16.386719 6.308594 15.886719 6.144531 15.351563 6.066406 C 14.816406 5.988281 14.03125 5.949219 12.996094 5.949219 L 7.9375 5.949219 L 7.9375 20.054688 L 13.65625 20.054688 C 14.636719 20.054688 15.441406 19.96875 16.074219 19.789063 C 16.714844 19.613281 17.296875 19.316406 17.828125 18.902344 C 18.277344 18.550781 18.632813 18.117188 18.898438 17.585938 C 19.164063 17.054688 19.296875 16.4375 19.296875 15.734375 Z M 14.757813 9.9375 C 14.757813 9.710938 14.699219 9.476563 14.582031 9.238281 C 14.46875 9 14.285156 8.824219 14.035156 8.714844 C 13.800781 8.613281 13.53125 8.558594 13.210938 8.546875 C 12.890625 8.539063 12.410156 8.535156 11.78125 8.535156 L 11.535156 8.535156 L 11.535156 11.519531 L 11.984375 11.519531 C 12.585938 11.519531 13.011719 11.511719 13.253906 11.5 C 13.496094 11.484375 13.753906 11.421875 14.011719 11.304688 C 14.289063 11.171875 14.488281 10.984375 14.59375 10.753906 C 14.703125 10.519531 14.757813 10.246094 14.757813 9.9375 Z M 15.644531 15.671875 C 15.644531 15.234375 15.5625 14.894531 15.382813 14.648438 C 15.203125 14.398438 14.9375 14.214844 14.585938 14.089844 C 14.371094 14.003906 14.074219 13.960938 13.699219 13.949219 C 13.324219 13.941406 12.820313 13.9375 12.191406 13.9375 L 11.535156 13.9375 L 11.535156 17.46875 L 11.726563 17.46875 C 12.648438 17.46875 13.285156 17.464844 13.636719 17.449219 C 13.992188 17.433594 14.355469 17.351563 14.71875 17.191406 C 15.039063 17.050781 15.273438 16.851563 15.425781 16.585938 C 15.570313 16.316406 15.644531 16.011719 15.644531 15.671875 Z"/></svg>