<svg version="1.1" xmlns="http://www.w3.org/2000/svg" xmlns:xlink="http://www.w3.org/1999/xlink" width="48px" height="48px" viewBox="0,0,256,256"><g fill="none" fill-rule="nonzero" stroke="none" stroke-width="1" stroke-linecap="butt" stroke-linejoin="miter" stroke-miterlimit="10" stroke-dasharray="" stroke-dashoffset="0" font-family="none" font-weight="none" font-size="none" text-anchor="none" style="mix-blend-mode: normal"><g transform="scale(5.33333,5.33333)"><path d="M24,4c-11.04569,0 -20,8.95431 -20,20c0,11.04569 8.95431,20 20,20c11.04569,0 20,-8.95431 20,-20c0,-11.04569 -8.95431,-20 -20,-20z" fill="#db4437"></path><path d="M34,19h2v8h-2z" fill="#ffffff"></path><path d="M31,22h8v2h-8zM27.815,22.2l-0.05,-0.2h-8.765v3h5.91c-0.477,2.837 -2.938,5 -5.91,5c-3.314,0 -6,-2.686 -6,-6c0,-3.314 2.686,-6 6,-6c1.5,0 2.868,0.554 3.92,1.465l2.151,-2.106c-1.6,-1.465 -3.731,-2.359 -6.071,-2.359c-4.971,0 -9,4.029 -9,9c0,4.971 4.029,9 9,9c4.971,0 9,-4.029 9,-9c0,-0.617 -0.066,-1.218 -0.185,-1.8z" fill="#ffffff"></path></g></g></svg>